<?xml version="1.0" encoding="utf-8"?>
<!DOCTYPE svg PUBLIC "-//W3C//DTD SVG 1.1//EN" "http://www.w3.org/Graphics/SVG/1.1/DTD/svg11.dtd">
<svg version="1.1" xmlns="http://www.w3.org/2000/svg" width="1500px" height="374px" viewBox="0 0 1500 374" preserveAspectRatio="xMidYMid meet">
 <g fill="#ffffff">
  <path d="M991.3 332.2 c-9.6 -3.4 -16.5 -9.6 -19.9 -17.8 -0.8 -2 -12.8 -54.6 -26.5 -116.8 -27.7 -125.2 -27 -120.7 -21.6 -131.3 4.2 -8.1 20.2 -21.4 34.3 -28.3 9.8 -4.8 29.2 -10.5 42.9 -12.7 12.1 -1.9 38.2 -2.2 48 -0.5 9.5 1.6 29.4 7.7 38.1 11.7 18.3 8.4 34.4 22.4 44.3 38.7 5.3 8.6 5.3 8.6 11.8 3.7 13.6 -10.4 27.2 -15.1 43.3 -15 14.2 0 24.3 3.7 33.6 12.3 2.3 2.2 5.1 5.7 6.2 7.8 1.9 3.8 1.9 3.8 3.1 -1 1.5 -5.9 7.6 -13.2 13.5 -16.2 5.6 -3 15.5 -3 21.2 -0.1 5.2 2.8 10.2 7.8 12.5 12.8 1.7 3.8 1.9 7.8 1.9 68.3 0 69.5 0.2 67.3 -5.5 74 -4.4 5.2 -10.7 8.4 -18 9 -5.6 0.4 -7.2 0.1 -11.9 -2.2 -6.3 -3.1 -11.1 -8.3 -12.8 -13.8 -1.1 -3.7 -1.1 -3.7 -6.8 2.1 -6.1 6 -15.3 11.2 -23 13 -6.4 1.5 -19.6 1.3 -28.3 -0.3 -11.3 -2.2 -24 -8.6 -34.5 -17.4 -3.3 -2.7 -3.3 -2.7 0.2 -10.2 3.2 -7.1 7.6 -21.5 7.6 -24.9 0 -0.9 -1.1 0.9 -2.3 3.9 -15.2 36.8 -51.7 61.6 -88.2 59.7 -12.5 -0.6 -21.3 -3.3 -30.1 -9.2 -5.3 -3.6 -6.5 -4.1 -6.1 -2.5 0.3 1.1 1.7 7.7 3.2 14.7 1.5 7.1 4.7 22.3 7.2 33.8 3.6 16.6 4.4 22.3 4 27.1 -0.9 11.3 -9.2 22.6 -19.4 26.4 -8.1 3 -15.7 3.4 -22 1.2z m218.7 -146.3 c14.3 -6.8 20.8 -20.6 19.7 -42.4 -0.6 -13.2 -3.2 -20.1 -10.1 -27 -6.8 -6.8 -13.3 -9.8 -21.9 -10.3 -24.5 -1.5 -39.5 18.7 -36.4 48.8 1.6 15.6 10.8 27.9 24.7 32.7 5.9 2 17.7 1.1 24 -1.8z"/>
  <path d="M43 229.8 c-6 -1 -12.8 -5.4 -16.5 -10.7 -3 -4.3 -3 -4.3 -3.3 -69.9 -0.3 -65.6 -0.3 -65.6 2.4 -70.9 6.5 -13.4 23.9 -18.1 35.4 -9.6 7.9 5.9 10.3 10.5 11 21.8 0.4 5.8 0.9 8.3 1.4 7 4 -10.4 11.3 -19.4 20.7 -25.5 3.1 -2 9.1 -4.7 13.4 -5.9 6.5 -2 9.3 -2.2 18.8 -1.9 22.8 0.9 37 9.9 46.7 29.5 4.2 8.6 4.2 8.6 7.4 2.7 4 -7.6 15.4 -19.6 22.6 -23.8 11.3 -6.6 17 -8.1 32 -8 11.6 0 14.3 0.3 19.2 2.3 16.4 6.4 27.7 18.8 33.7 37.1 4.3 13 5.1 22.8 5.1 66.6 0 41 0 41 -2.5 46.1 -4.3 8.5 -12.6 13.5 -22.6 13.4 -6.8 0 -11.2 -1.7 -16.4 -6.2 -7.3 -6.5 -7.5 -7.2 -7.5 -44.9 -0.1 -50.2 -1.4 -58.5 -10.5 -66.9 -5.3 -4.9 -10.7 -6.5 -20.5 -5.9 -11.6 0.7 -20.8 6.6 -26.5 16.9 -3 5.4 -3 5.4 -3.5 46.9 -0.6 47.1 -0.5 46.8 -8.8 54 -7.1 6.3 -17.9 8 -26.4 4.2 -4.6 -2 -11.1 -8.5 -13.1 -13 -0.8 -1.9 -1.3 -15.6 -1.7 -44.7 -0.5 -40.7 -0.6 -42.2 -2.8 -47.7 -2.4 -5.9 -7.5 -11.8 -12.7 -14.6 -1.8 -0.9 -6.4 -1.7 -11.8 -2 -8.2 -0.4 -9.1 -0.3 -15.2 2.7 -7.4 3.7 -10.7 7.1 -14.9 16.1 -3.1 6.5 -3.1 6.5 -3.6 48 -0.5 41.5 -0.5 41.5 -3.5 46 -5.5 8.1 -15.9 12.5 -25.5 10.8z"/>
  <path d="M386.5 229.5 c-12.2 -2.5 -21.8 -7.3 -32.8 -16.2 -8.6 -7.1 -13.8 -13.6 -18.7 -23.7 -6.9 -14 -8.4 -21.4 -8.4 -42.1 0 -15.4 0.4 -19.2 2.2 -26 7.8 -28.8 29.9 -49.9 59.2 -56.6 6.6 -1.5 20.6 -1.2 27.5 0.6 11.3 3 24.2 13.2 26.4 20.9 0.8 2.8 0.9 2.9 1 0.6 0.2 -3.8 3.8 -11.1 7.4 -14.8 5.1 -5.4 10.2 -7.6 17.7 -7.6 7.6 0 12.1 1.9 17.6 7.1 7.7 7.6 7.4 4 7.4 76.1 0 51.7 -0.3 64.9 -1.3 67.5 -2 4.8 -6.3 9.4 -11.6 12.5 -3.9 2.3 -5.7 2.7 -12.1 2.7 -6.4 0 -8.2 -0.4 -12.2 -2.7 -5.1 -3 -10.4 -9.5 -11.3 -13.9 -0.6 -2.8 -0.6 -2.8 -6.6 3.2 -6.3 6.1 -15 11 -22.9 12.8 -6 1.4 -21.1 1.2 -28.5 -0.4z m38.5 -43.6 c9.8 -4.6 16.5 -13.4 18.9 -24.7 1.5 -7.1 1.4 -21.4 -0.3 -28.3 -7.2 -30.9 -47.7 -36.8 -62.3 -9.2 -4.3 8.1 -5.6 15.1 -5.1 26.9 0.6 13.2 3.2 20 10.7 27.7 7.7 7.9 14.8 10.9 25.1 10.5 5.5 -0.3 9 -1 13 -2.9z"/>
  <path d="M587.8 229.9 c-16.8 -1.5 -29.7 -9.7 -35.4 -22.5 -5 -11.4 -5.6 -16.9 -6.1 -62.1 -0.5 -42.3 -0.5 -42.3 -6.4 -42.3 -7 0 -11.4 -1.6 -15.1 -5.6 -3.5 -3.8 -4.8 -7.4 -4.8 -13.3 0 -10.8 8.9 -19.1 20.5 -19.1 5.2 0 5.2 0 5.7 -12.3 0.5 -13.6 1.8 -17.7 7.5 -23.3 7.1 -7.1 18 -9.6 26.5 -6.1 5.3 2.2 10.9 7.7 13.4 13.2 2.1 4.3 2.4 6.6 2.4 16.8 0 11.7 0 11.7 11.3 11.7 10.4 0 11.8 0.2 16.8 2.7 7.1 3.6 9.9 8.4 9.9 16.8 0 7.8 -2.9 13 -8.9 16.2 -3.9 2 -5.8 2.3 -16.8 2.3 -12.3 0 -12.3 0 -12.3 37.3 0 22.7 0.4 38.7 1.1 41 1.6 5.8 4.1 6.9 14.5 6.2 8.1 -0.6 9.3 -0.4 13.4 1.7 6.6 3.4 9 7.6 9 15.6 0 13.9 -10.3 23 -27.7 24.7 -3.2 0.3 -6.9 0.7 -8.3 0.9 -1.4 0.1 -6 -0.1 -10.2 -0.5z"/>
  <path d="M734.5 230 c-19.1 -1.7 -38.8 -10.6 -52.8 -23.9 -10.3 -9.8 -17.3 -22.1 -21.3 -37.8 -2.3 -8.9 -2.5 -11.1 -2.1 -24.3 0.5 -15.5 2 -22.4 7.1 -33.3 13.5 -28.4 43.7 -46.7 77.2 -46.8 22.7 -0.1 38.4 5.3 50.8 17.4 6.9 6.8 8.9 10.8 8.9 17.7 0 6.3 -1.9 10.6 -6.2 14.3 -7.5 6.3 -15.4 6.1 -29.1 -0.6 -10.9 -5.4 -18 -7 -26.5 -6.1 -22.3 2.4 -34.4 17.9 -33.3 42.8 0.6 12.5 3.1 19.5 9.5 26.6 12.1 13.5 30.6 15.6 50.2 5.6 13.6 -6.9 21.7 -7.2 29.2 -0.9 5.9 5 7.8 12.1 5.3 20.3 -1.3 4.3 -2.8 6.6 -7.7 11.3 -3.4 3.2 -8.4 7.1 -11.2 8.7 -7.2 4.1 -19.6 7.9 -27.9 8.6 -3.9 0.3 -8.2 0.6 -9.6 0.8 -1.4 0.1 -6.1 -0.1 -10.5 -0.4z"/>
  <path d="M855 229.6 c-8.5 -1.7 -15.4 -7.6 -18.2 -15.3 -1 -3.1 -1.3 -21.8 -1.3 -96.8 0 -106.1 -0.6 -98.6 8.7 -106.9 5.3 -4.9 9.7 -6.6 16.6 -6.6 8.5 0 17.5 5.9 21.6 14.2 2.6 5.2 2.6 5.2 2.6 43.2 0 38.1 0 38.1 3.5 31.1 3.4 -7 12.8 -17.5 18.4 -20.5 2.4 -1.2 2.4 -1.2 0.4 1.6 -5.1 7.2 -6.4 17 -3.9 27.9 1.5 6.2 1.4 7.5 -0.8 7.5 -2.8 0 -9.9 7.5 -13.4 14.4 -3.7 7.1 -3.7 7.1 -4.2 48.6 -0.6 45.7 -0.3 44.2 -7.1 50.9 -6.2 6.2 -13.9 8.5 -22.9 6.7z"/>
  <path d="M1336.7 229.5 c-9.5 -1.9 -16.6 -9.1 -18.7 -18.9 -0.7 -3.7 -1 -24.7 -0.8 -66.2 0.3 -67.2 0 -64 6.8 -71.8 5 -5.6 10.3 -8 18 -8 7.5 0 12.7 2.3 17.6 7.6 5.7 6.2 6.7 8.7 7.3 18.3 0.6 9 0.6 9 2.6 3.6 3 -8.2 14.3 -19.8 23.7 -24.4 9.2 -4.5 14.1 -5.6 25 -5.7 10.9 0 17.6 1.4 25.6 5.4 16.4 8 26.8 23.5 31.3 46.7 1.7 8.9 1.9 14.6 1.9 52.2 0 24.3 -0.4 43.7 -1 45.7 -2.4 8.7 -13.1 16.1 -23.4 16.1 -6.6 0 -12.8 -2.5 -17.4 -7 -6.9 -6.9 -6.6 -5.3 -7.3 -51.1 -0.7 -48.8 -0.9 -50.1 -9.4 -58.5 -5.8 -5.8 -10.2 -7.5 -19.7 -7.5 -12.9 0 -21.7 5.5 -27.8 17.6 -3.5 6.9 -3.5 6.9 -4 48.4 -0.6 45.7 -0.3 44.2 -7.1 50.9 -6.2 6.3 -13.9 8.5 -23.2 6.6z"/>
 </g>
</svg>